<svg width="196" height="185" viewBox="0 0 196 185" fill="none" xmlns="http://www.w3.org/2000/svg">
<path d="M0 36C0 19.4315 13.4315 6 30 6H136C169.137 6 196 32.8629 196 66V155C196 171.569 182.569 185 166 185H60C26.8629 185 0 158.137 0 125V36Z" fill="#D9D9D9"/>
<path d="M75.5625 126H59.0625V46.75H30.5625V32.25H104V46.75H75.5625V126Z" fill="black"/>
<path d="M130.5 67.25C137.792 67.25 144.021 68.4167 149.188 70.75C154.354 73.0833 158.333 76.4375 161.125 80.8125C163.917 85.1458 165.312 90.375 165.312 96.5C165.312 103 163.708 108.521 160.5 113.062C157.292 117.562 152.75 120.854 146.875 122.938L169.062 161H150.75L130.188 125.75H109.812V161H93.3125V112.25H129.312C135.354 112.25 140.042 110.917 143.375 108.25C146.75 105.583 148.438 101.833 148.438 97C148.438 92.1667 146.771 88.4167 143.438 85.75C140.104 83.0833 135.396 81.75 129.312 81.75H93.3125V67.25H130.5Z" fill="black"/>
<line x1="100" y1="39.5" x2="120" y2="39.5" stroke="black" stroke-width="14.5"/>
</svg>
